<?xml version="1.0" standalone="no"?>
<!DOCTYPE svg PUBLIC "-//W3C//DTD SVG 20010904//EN"
 "http://www.w3.org/TR/2001/REC-SVG-20010904/DTD/svg10.dtd">
<svg version="1.0" xmlns="http://www.w3.org/2000/svg"
 width="502.000000pt" height="497.000000pt" viewBox="0 0 502.000000 497.000000"
 preserveAspectRatio="xMidYMid meet">

<g transform="translate(0.000000,497.000000) scale(0.100000,-0.100000)"
fill="#000000" stroke="none">
<path d="M2580 4354 c-222 -36 -301 -43 -352 -29 -22 6 -28 4 -28 -9 0 -9 -3
-16 -7 -17 -85 -8 -115 -45 -113 -132 4 -120 7 -112 -71 -153 -41 -22 -74 -46
-79 -59 -4 -12 -20 -29 -34 -38 -14 -10 -26 -26 -26 -37 0 -11 -4 -20 -10 -20
-14 0 -13 -53 2 -68 7 -7 12 -42 11 -89 0 -70 0 -73 7 -28 5 36 7 41 8 19 1
-18 14 -58 28 -90 50 -114 62 -150 78 -214 8 -36 18 -74 21 -85 5 -17 0 -23
-27 -33 -43 -15 -59 -43 -65 -112 -6 -61 6 -95 57 -160 15 -19 42 -62 60 -95
19 -33 35 -62 36 -64 2 -2 17 -6 34 -10 29 -6 34 -14 66 -96 51 -132 56 -152
50 -208 -3 -29 -5 -84 -6 -124 l0 -72 -72 -36 c-40 -21 -98 -50 -128 -65 -30
-16 -127 -49 -215 -75 -309 -91 -548 -181 -626 -236 -32 -22 -123 -180 -174
-299 -78 -183 -212 -583 -275 -824 -17 -66 -45 -150 -62 -188 -19 -41 -27 -73
-22 -78 5 -5 43 -22 84 -38 41 -17 106 -45 144 -62 64 -29 68 -33 62 -58 -3
-15 -9 -105 -12 -200 l-7 -172 40 0 c46 0 65 20 77 80 13 63 39 125 63 150 21
23 31 25 106 25 65 -1 90 -5 117 -21 l35 -20 -2 -108 c-1 -95 1 -107 15 -104
12 2 20 21 28 68 9 61 11 63 17 31 4 -18 7 -49 7 -67 l0 -34 1060 0 1059 0 -6
49 c-6 55 3 121 17 121 6 0 10 -38 10 -85 l0 -85 56 0 56 0 -5 52 c-5 46 -2
55 19 75 14 13 33 23 44 23 10 0 67 18 127 40 108 40 153 49 153 30 0 -5 5
-10 10 -10 6 0 10 12 10 28 0 15 4 32 8 38 8 13 71 46 139 73 26 10 78 33 116
51 81 39 88 56 59 138 -11 31 -33 113 -47 182 -90 423 -169 701 -247 870 -20
41 -43 100 -53 130 -23 69 -42 87 -196 181 -166 102 -181 109 -365 173 -223
77 -359 131 -390 155 -36 29 -44 17 -11 -17 51 -54 42 -117 -27 -184 -52 -50
-188 -116 -266 -129 -71 -11 -176 -3 -230 17 l-35 14 40 -6 c44 -7 41 -7 73
-5 15 1 21 5 16 13 -5 8 0 9 14 6 12 -4 20 -2 17 2 -3 5 13 26 35 46 31 29 40
44 40 71 0 18 -4 33 -10 33 -5 0 -14 9 -19 19 -9 16 -4 26 28 58 21 21 44 49
51 63 16 31 47 71 128 161 34 39 62 74 62 79 0 5 18 30 40 55 37 42 44 57 41
78 0 4 4 6 10 5 16 -4 60 75 50 90 -6 11 -12 10 -25 -4 -16 -16 -18 -15 -32 4
-14 20 -46 24 -71 9 -22 -14 -43 4 -38 32 6 34 -25 71 -59 71 -13 0 -49 11
-80 25 -60 27 -102 32 -108 14 -2 -7 -15 -4 -36 8 -38 23 -33 34 12 26 27 -4
34 -1 38 14 4 14 20 24 51 31 70 18 105 66 55 76 -114 22 -147 32 -180 54 -36
24 -38 27 -33 67 7 61 54 160 77 160 7 0 33 -38 59 -84 25 -47 58 -97 73 -113
14 -15 37 -45 50 -66 13 -20 31 -44 41 -52 17 -14 18 -13 11 10 -4 14 -10 35
-13 48 -3 13 -23 35 -45 49 -21 14 -37 28 -35 30 2 2 26 -2 53 -8 37 -9 63 -8
105 0 68 14 101 45 134 127 22 54 26 59 52 56 15 -2 32 -8 38 -13 5 -5 9 -49
9 -97 0 -82 1 -89 22 -99 18 -8 23 -7 27 8 3 10 -1 26 -8 36 -7 10 -14 45 -17
77 -4 46 -1 63 11 75 9 9 28 61 41 115 18 73 30 100 43 104 23 6 22 28 -3 45
-45 31 -43 103 3 125 15 7 29 23 32 35 32 141 32 161 0 232 -44 100 -181 250
-248 271 -35 11 -126 73 -137 93 -8 16 -27 20 -135 26 -69 4 -122 11 -119 16
3 5 10 7 15 4 13 -9 11 9 -3 23 -14 14 -36 14 -148 -4z m-510 -418 c0 -2 -7
-9 -15 -16 -13 -11 -14 -10 -9 4 5 14 24 23 24 12z m-80 -86 c6 -11 8 -26 4
-32 -5 -8 -10 -5 -14 7 -5 15 -10 6 -19 -33 -8 -29 -17 -49 -23 -46 -17 11 13
124 33 124 5 0 13 -9 19 -20z m-113 -32 c-3 -7 -5 -2 -5 12 0 14 2 19 5 13 2
-7 2 -19 0 -25z m1020 -44 l143 -5 21 -30 c21 -29 70 -162 84 -227 4 -18 13
-45 21 -60 21 -40 18 -45 -23 -37 -21 4 -48 9 -61 11 -17 3 -22 1 -16 -8 5
-10 4 -11 -7 0 -7 6 -27 13 -43 13 l-31 1 29 7 30 6 -32 27 c-17 14 -50 29
-73 33 -54 9 -143 -2 -194 -25 -62 -28 -68 -29 -105 -9 -56 30 -133 63 -160
69 -20 4 -26 12 -28 43 -3 29 0 37 14 37 12 0 15 7 12 30 -4 28 -1 32 48 55
29 14 56 25 61 25 4 0 22 13 38 30 27 27 34 29 80 24 28 -3 114 -7 192 -10z
m-497 -220 c0 -2 -7 -4 -15 -4 -8 0 -15 4 -15 10 0 5 7 7 15 4 8 -4 15 -8 15
-10z m664 -165 c17 -14 26 -30 26 -50 l0 -29 -32 20 c-18 11 -40 20 -48 21 -8
0 -33 9 -55 20 l-40 19 45 -5 c55 -7 48 3 -11 14 -43 9 -43 9 22 10 53 1 72
-3 93 -20z m-334 -5 c0 -2 -17 -4 -37 -4 -24 0 -33 3 -25 9 12 7 62 4 62 -5z
m-175 -24 c10 -11 15 -20 11 -20 -14 0 -46 21 -46 30 0 16 16 11 35 -10z m654
-25 c0 -5 -4 -3 -9 5 -5 8 -9 22 -9 30 0 16 17 -16 18 -35z m-1080 -11 c-18
-22 -22 -11 -7 22 10 21 14 24 16 10 2 -9 -2 -24 -9 -32z m1022 -7 c-13 -12
-20 -15 -16 -7 14 26 28 41 33 35 3 -3 -5 -16 -17 -28z m-446 2 c12 -18 -3
-22 -20 -5 -14 14 -14 16 -1 16 8 0 18 -5 21 -11z m72 -16 c5 3 22 -5 37 -18
39 -34 87 -48 127 -38 l32 9 -33 16 c-32 16 -32 16 -9 23 13 4 27 12 30 17 4
6 16 4 30 -5 13 -8 41 -18 63 -22 l38 -6 -6 -42 c-13 -83 -71 -127 -169 -127
-70 0 -108 18 -137 65 -21 34 -43 166 -22 136 5 -7 14 -11 19 -8z m-485 -102
c10 5 18 6 18 2 0 -9 84 -6 139 4 41 7 67 -17 50 -48 -7 -14 -6 -19 3 -19 7 0
1 -8 -12 -17 -18 -13 -45 -18 -98 -18 -72 0 -74 1 -108 37 -19 21 -34 45 -34
55 0 13 3 14 12 5 7 -7 17 -8 30 -1z m72 -116 c31 -4 66 -5 77 -2 15 4 19 3
11 -5 -5 -5 -37 -10 -70 -11 -63 0 -90 13 -127 62 -16 22 -14 21 17 -6 28 -24
50 -33 92 -38z m204 -22 c-2 -11 -14 -19 -31 -21 -29 -4 -35 6 -15 26 19 19
50 15 46 -5z m-128 -27 c0 -11 -53 -96 -60 -96 -10 0 -25 20 -33 43 -5 13 2
23 26 37 28 18 67 27 67 16z m402 -272 c22 -3 47 -17 62 -35 25 -27 26 -32 15
-73 -9 -37 -8 -50 5 -78 16 -30 16 -34 -2 -58 -29 -38 -79 -69 -115 -68 -46 0
-107 28 -107 49 0 9 -9 19 -19 22 -13 3 -24 19 -31 46 -6 22 -15 41 -20 41 -6
0 -10 4 -10 9 0 5 19 12 43 16 47 8 67 20 67 42 0 8 10 23 23 34 l22 19 -35 0
c-77 1 -106 6 -130 20 -24 14 -23 15 45 21 72 6 123 5 187 -7z m215 -126 c-3
-8 -6 -5 -6 6 -1 11 2 17 5 13 3 -3 4 -12 1 -19z"/>
<path d="M2763 4363 c9 -2 25 -2 35 0 9 3 1 5 -18 5 -19 0 -27 -2 -17 -5z"/>
<path d="M2790 4340 c-19 -6 -12 -8 30 -9 39 0 51 2 40 9 -17 11 -35 11 -70 0z"/>
<path d="M3297 3254 c-3 -3 3 -16 14 -27 11 -12 23 -35 27 -52 l8 -30 8 29
c13 51 -28 109 -57 80z"/>
</g>
</svg>
